<?xml version="1.0" encoding="UTF-8" standalone="no"?>
<!-- Created with Inkscape (http://www.inkscape.org/) -->

<svg
   width="210mm"
   height="297mm"
   viewBox="0 0 210 297"
   version="1.1"
   id="svg1"
   xml:space="preserve"
   inkscape:version="1.4.2 (f4327f4, 2025-05-13)"
   sodipodi:docname="logo.svg"
   xmlns:inkscape="http://www.inkscape.org/namespaces/inkscape"
   xmlns:sodipodi="http://sodipodi.sourceforge.net/DTD/sodipodi-0.dtd"
   xmlns:xlink="http://www.w3.org/1999/xlink"
   xmlns="http://www.w3.org/2000/svg"
   xmlns:svg="http://www.w3.org/2000/svg"><sodipodi:namedview
     id="namedview1"
     pagecolor="#ffffff"
     bordercolor="#000000"
     borderopacity="0.25"
     inkscape:showpageshadow="2"
     inkscape:pageopacity="0.0"
     inkscape:pagecheckerboard="0"
     inkscape:deskcolor="#d1d1d1"
     inkscape:document-units="mm"
     inkscape:zoom="1.3772587"
     inkscape:cx="493.00832"
     inkscape:cy="474.49328"
     inkscape:window-width="1920"
     inkscape:window-height="991"
     inkscape:window-x="-9"
     inkscape:window-y="-9"
     inkscape:window-maximized="1"
     inkscape:current-layer="layer1" /><defs
     id="defs1"><linearGradient
       id="swatch17"
       inkscape:swatch="solid"><stop
         style="stop-color:#565656;stop-opacity:1;"
         offset="0"
         id="stop18" /></linearGradient><linearGradient
       id="swatch7"
       inkscape:swatch="solid"><stop
         style="stop-color:#000000;stop-opacity:1;"
         offset="0"
         id="stop7" /></linearGradient><linearGradient
       id="swatch12"
       inkscape:swatch="solid"><stop
         style="stop-color:#0c0505;stop-opacity:1;"
         offset="0"
         id="stop12" /></linearGradient><linearGradient
       id="swatch11"
       inkscape:swatch="solid"><stop
         style="stop-color:#000000;stop-opacity:1;"
         offset="0"
         id="stop11" /></linearGradient><linearGradient
       id="swatch10"
       inkscape:swatch="solid"><stop
         style="stop-color:#000000;stop-opacity:1;"
         offset="0"
         id="stop10" /></linearGradient><linearGradient
       id="swatch9"
       inkscape:swatch="solid"><stop
         style="stop-color:#000000;stop-opacity:1;"
         offset="0"
         id="stop9" /></linearGradient><linearGradient
       id="swatch8"
       inkscape:swatch="solid"><stop
         style="stop-color:#000000;stop-opacity:1;"
         offset="0"
         id="stop8" /></linearGradient><linearGradient
       id="swatch6"
       inkscape:swatch="solid"><stop
         style="stop-color:#000000;stop-opacity:1;"
         offset="0"
         id="stop6" /></linearGradient><linearGradient
       id="swatch5"
       inkscape:swatch="solid"><stop
         style="stop-color:#000000;stop-opacity:1;"
         offset="0"
         id="stop5" /></linearGradient><linearGradient
       id="swatch4"
       inkscape:swatch="solid"><stop
         style="stop-color:#000000;stop-opacity:1;"
         offset="0"
         id="stop4" /></linearGradient><linearGradient
       id="swatch3"
       inkscape:swatch="solid"><stop
         style="stop-color:#000000;stop-opacity:1;"
         offset="0"
         id="stop3" /></linearGradient><linearGradient
       id="swatch2"
       inkscape:swatch="solid"><stop
         style="stop-color:#000000;stop-opacity:1;"
         offset="0"
         id="stop2" /></linearGradient><linearGradient
       id="swatch1"
       inkscape:swatch="solid"><stop
         style="stop-color:#181818;stop-opacity:1;"
         offset="0"
         id="stop1" /></linearGradient><linearGradient
       inkscape:collect="always"
       xlink:href="#swatch1"
       id="linearGradient1"
       x1="63.587967"
       y1="134.76424"
       x2="168.47929"
       y2="134.76424"
       gradientUnits="userSpaceOnUse"
       gradientTransform="matrix(1.2090209,0,0,1.0336124,-35.395763,-15.960213)" /><linearGradient
       inkscape:collect="always"
       xlink:href="#swatch3"
       id="linearGradient3"
       x1="60.610284"
       y1="129.28911"
       x2="149.36449"
       y2="129.28911"
       gradientUnits="userSpaceOnUse" /><linearGradient
       inkscape:collect="always"
       xlink:href="#swatch8"
       id="linearGradient8"
       x1="114.92897"
       y1="237.74648"
       x2="123.18964"
       y2="237.74648"
       gradientUnits="userSpaceOnUse" /><linearGradient
       inkscape:collect="always"
       xlink:href="#swatch10"
       id="linearGradient10"
       x1="119.15538"
       y1="242.32107"
       x2="127.36802"
       y2="242.32107"
       gradientUnits="userSpaceOnUse" /><linearGradient
       inkscape:collect="always"
       xlink:href="#swatch7"
       id="linearGradient7"
       x1="90.9478"
       y1="97.513344"
       x2="117.9519"
       y2="97.513344"
       gradientUnits="userSpaceOnUse" /></defs><g
     inkscape:label="Capa 1"
     inkscape:groupmode="layer"
     id="layer1"><g
       id="g18"
       transform="translate(2.4974127,-5.186934)"
       inkscape:export-filename="g18.png"
       inkscape:export-xdpi="96"
       inkscape:export-ydpi="96"><ellipse
         style="opacity:1;fill:#ffffff;fill-opacity:1;fill-rule:evenodd;stroke:url(#linearGradient1);stroke-width:2.62489;stroke-dasharray:none"
         id="path1"
         cx="104.89132"
         cy="123.33377"
         rx="63.407909"
         ry="56.491997" /><path
         style="opacity:1;fill:#171717;fill-opacity:1;stroke:none;stroke-width:0.221;stroke-dasharray:none"
         d="m 102.68208,88.369986 c 0.44257,-1.120634 0.74467,-2.241268 1.92109,-3.361902 2.74801,-1.57298 6.10846,-3.873646 1.92108,-7.492238 -1.17197,-0.213265 -2.22209,-0.629627 -4.13033,0.384217 l -0.96055,2.593467 c -0.54083,0.454043 -1.19703,0.71581 -2.497408,-0.09605 -0.203276,-0.899734 -0.07332,-2.021627 1.248708,-3.938228 3.40374,-2.233746 6.19492,-1.608851 8.837,-0.288163 3.04554,3.266345 3.13395,6.146979 0.28816,8.64489 l -3.07374,1.921087 -0.19211,1.632924 28.14392,11.81468 17.86611,26.79916 c 0.23866,1.25597 -0.1439,2.20134 -1.44082,2.68952 l -16.6174,6.43564 0.96055,26.31889 c -0.35985,0.7928 -1.08102,1.22428 -2.20925,1.2487 l -56.672059,-0.19211 c -0.719015,-0.0677 -1.468716,-0.0537 -1.440815,-2.11319 l 0.288163,-25.83862 -16.329236,-6.43564 c -1.429124,-0.32602 -1.27748,-1.44243 -0.672381,-2.78557 l 17.385834,-26.22284 z"
         id="path3"
         sodipodi:nodetypes="cccccccccccccccccccccccc" /><path
         style="opacity:1;fill:#0b0606;fill-opacity:1;stroke:url(#linearGradient3);stroke-width:0.221;stroke-dasharray:none"
         d="m 133.1313,111.23092 0.57633,22.2846 15.65686,-6.24353 -16.6174,-25.35834 -11.33441,-4.706666 c -1.0343,18.727656 -31.627506,18.041136 -33.522966,0.192109 l -11.334411,4.514557 -15.945019,25.35834 14.888421,5.66721 0.384218,-22.18856 c 0.466289,-1.64416 2.362996,-1.19533 2.881629,-0.0961 l -0.960543,50.52458 54.174641,0.19211 -1.44081,-50.42853 c 0.35153,-2.33748 2.62896,-1.53504 2.59346,0.28822 z"
         id="path2"
         sodipodi:nodetypes="ccccccccccccccc" /><path
         style="opacity:1;fill:#fffcfc;fill-opacity:1;stroke:url(#linearGradient7);stroke-width:0.121;stroke-dasharray:none"
         d="m 93.392944,95.541099 c 3.555623,-1.567514 9.531556,-4.271127 10.570816,-4.6305 l 13.98814,5.326189 c -4.15988,10.726752 -22.556988,10.153972 -27.0041,0.391033 z"
         id="path4"
         sodipodi:nodetypes="ccccc" /><g
         id="g13"
         transform="translate(-1.9563897,-118.59539)"><path
           style="opacity:1;fill:#fcfafa;fill-opacity:1;fill-rule:evenodd;stroke:url(#linearGradient8);stroke-width:0.2;stroke-dasharray:none"
           d="m 119.77975,241.50461 c -0.22112,0.17657 -0.72638,0.54686 -0.72041,1.00857 -0.45441,-0.99749 -1.06678,-1.40264 -1.777,-1.44082 l 0.48026,-0.38422 c 0.25442,-0.24901 0.40886,-0.548 0.57634,-0.84047 l 0.19207,-2.85762 c -1.28019,-0.24817 -1.9624,0.44872 -2.42538,1.08061 0.10935,-0.72922 -0.46198,-1.19663 -1.17666,-1.60891 0.57412,-0.32537 1.19829,-0.60569 1.15265,-1.48884 0.57725,0.76052 1.40078,1.18875 2.23327,0.86449 -0.16492,-0.4984 -0.31925,-0.84574 -0.93654,-1.39279 0.72346,-0.20277 1.24459,-0.39095 1.65694,-1.46483 0.37771,0.64747 0.66367,1.34999 1.96911,1.44082 -0.73063,0.3353 -1.01183,0.85037 -1.10462,1.44081 0.68038,0.11625 1.36077,0.012 2.04115,-0.8885 0.22866,0.80705 0.57419,1.43045 1.24871,1.53687 -0.77003,0.19517 -1.11023,0.74202 -1.17666,1.51286 -0.35957,-0.40696 -1.40425,-1.27839 -2.32932,-0.93653 l 0.024,2.35333 0.024,0.21612 0.31217,0.62435 0.60034,0.84048 z"
           id="path7"
           sodipodi:nodetypes="ccccccccccccccccccccccc" /><path
           style="opacity:1;fill:#fcfafa;fill-opacity:1;fill-rule:evenodd;stroke:url(#linearGradient10);stroke-width:0.2;stroke-dasharray:none"
           d="m 123.23771,247.09977 c -0.30414,-0.76742 -0.85305,-1.27718 -1.765,-1.4048 l 0.44425,-0.43224 c 0.35228,-0.40687 0.54818,-0.86586 0.61235,-1.36877 l 0.048,-2.23327 c -0.99797,-0.28585 -1.69427,0.16091 -2.24527,0.96055 -0.1,-0.65841 -0.31703,-1.25829 -1.17666,-1.53687 0.5026,-0.37119 1.07917,-0.63671 1.15265,-1.62092 0.47664,0.83867 1.18442,1.12617 2.07718,0.97255 -0.0996,-0.52638 -0.38246,-1.0222 -1.0566,-1.45282 1.03745,0.0783 1.49039,-0.67397 1.93309,-1.44082 0.44826,0.66099 0.70692,1.49698 1.9451,1.42881 -0.64004,0.44164 -1.0168,0.92715 -1.08061,1.46483 0.77896,0.0205 1.51563,-0.1017 2.04116,-0.93653 0.12354,0.91555 0.63498,1.27697 1.20067,1.56088 -0.76149,0.26878 -1.15954,0.77985 -1.15265,1.56089 -0.53942,-0.59725 -1.0784,-1.19503 -2.3053,-0.94854 v 2.42537 c 0.21325,0.53201 0.30451,1.05183 1.12864,1.64493 -1.32304,0.20383 -1.45201,0.81811 -1.801,1.35677 z"
           id="path9"
           sodipodi:nodetypes="cccccccccccccccccccc" /><g
           id="g12"><path
             style="opacity:1;fill:#611111;fill-opacity:1;fill-rule:evenodd;stroke:none;stroke-width:0.1;stroke-dasharray:none"
             d="m 119.46758,236.18559 c 0.19008,-0.54162 0.24362,-1.02256 0.69639,-1.68094 -0.41711,-0.0636 -0.80716,-0.30748 -1.12864,-1.00858 -0.1753,0.50345 -0.55076,0.94524 -0.99656,1.00858 0.29975,0.55631 0.49265,1.11263 0.60034,1.66894 -1.71286,-0.12477 -1.81116,-0.15667 -2.44939,-0.55231 -0.18041,0.53137 -0.48718,0.68367 -0.79245,0.84047 0.51393,0.2622 0.76243,0.56232 0.82847,0.8885 1.31394,-0.79783 1.75772,-0.52409 2.44939,-0.57632 l 0.012,2.20925 c -0.0687,0.70113 -0.2021,1.39579 -0.58833,2.06517 0.41586,0.1944 0.88274,0.32386 0.96054,0.94853 0.0683,-0.21888 0.006,-0.39413 0.43224,-0.73241 -0.5019,-0.31901 0.0636,-0.44652 0.31218,-0.6964 l -0.37221,-0.94853 -0.0961,-0.57633 0.024,-2.26928 c 0.75993,0.0455 1.37797,-0.15233 2.55745,0.61235 0.004,-0.38382 0.15973,-0.71968 0.76843,-0.91252 -0.50954,-0.12422 -0.67032,-0.46307 -0.76843,-0.84048 -0.80295,0.40547 -1.61451,0.68844 -2.44932,0.55231 z"
             id="path8"
             sodipodi:nodetypes="ccccccccccccccccccccc" /><path
             style="opacity:1;fill:#611111;fill-opacity:1;fill-rule:evenodd;stroke:none;stroke-width:0.1;stroke-dasharray:none"
             d="m 123.64594,240.74818 c 0.0536,-0.47485 0.38409,-1.05355 0.68439,-1.62092 -0.54689,-0.007 -0.90992,-0.34892 -1.10463,-0.99656 -0.19056,0.75671 -0.57274,0.91122 -0.98456,0.97255 0.27659,0.55231 0.54342,1.10462 0.60034,1.65693 -1.07205,0.19075 -1.81097,-0.0944 -2.43737,-0.5403 -0.11597,0.55136 -0.45862,0.68172 -0.79245,0.82847 0.49291,0.0674 0.81064,0.30999 0.79245,0.8885 0.85173,-0.63904 1.67738,-0.6784 2.49741,-0.58833 l -0.024,2.41336 c -0.0121,0.67369 -0.29378,1.25751 -0.58833,1.83704 0.35055,0.14172 0.75483,0.0775 0.92452,0.91252 0.14352,-0.70243 0.5226,-0.88665 0.98456,-0.88851 -0.31737,-0.48325 -0.60911,-1.07599 -0.67238,-1.90908 l 0.036,-2.36533 c 0.3597,-0.0205 1.40974,-0.29233 2.52143,0.61234 -5.4e-4,-0.43527 0.16361,-0.78385 0.76843,-0.90051 -0.349,-0.10805 -0.67845,-0.24869 -0.74442,-0.82847 -0.70732,0.36444 -1.43934,0.6869 -2.46139,0.5163 z"
             id="path10"
             sodipodi:nodetypes="ccccccccccccccccccc" /></g></g></g></g></svg>
